<svg width="23" height="19" viewBox="0 0 23 19" fill="none" xmlns="http://www.w3.org/2000/svg">
<path d="M20.15 17.9501V9.66774C20.15 9.11859 19.9182 8.59193 19.5056 8.20362C19.093 7.81531 18.5335 7.59716 17.95 7.59716H4.74998C4.1665 7.59716 3.60692 7.81531 3.19434 8.20362C2.78176 8.59193 2.54998 9.11859 2.54998 9.66774V17.9501M2.54998 12.7736C2.54998 12.7736 3.09998 11.7383 4.74998 11.7383C6.39998 11.7383 7.49998 13.8089 9.14998 13.8089C10.8 13.8089 11.9 11.7383 13.55 11.7383C15.2 11.7383 16.3 13.8089 17.95 13.8089C19.6 13.8089 20.15 12.7736 20.15 12.7736M0.349976 17.9501H22.35M5.84998 4.49127V6.56186M11.35 4.49127V6.56186M16.85 4.49127V6.56186M5.84998 0.350098H5.86098M11.35 0.350098H11.361M16.85 0.350098H16.861" stroke="white" stroke-width="0.7" stroke-linecap="round" stroke-linejoin="round"/>
</svg>
