<svg width="23" height="23" viewBox="0 0 23 23" fill="none" xmlns="http://www.w3.org/2000/svg">
<path d="M18.6136 0C19.7969 0 20.8086 0.420099 21.6488 1.2603C22.489 2.1005 22.9091 3.11222 22.9091 4.29545V18.6136C22.9091 19.7969 22.489 20.8086 21.6488 21.6488C20.8086 22.489 19.7969 22.9091 18.6136 22.9091H4.29545C3.11222 22.9091 2.1005 22.489 1.2603 21.6488C0.420099 20.8086 0 19.7969 0 18.6136V4.29545C0 3.11222 0.420099 2.1005 1.2603 1.2603C2.1005 0.420099 3.11222 0 4.29545 0H18.6136ZM7.44247 5.47372H1.90909V17.2116H7.60653C8.76989 17.2116 9.74929 16.9258 10.5447 16.354C11.3402 15.7823 11.7379 14.9347 11.7379 13.8111C11.7379 12.2401 11.027 11.2457 9.60511 10.8281C10.669 10.3111 11.201 9.49574 11.201 8.3821C11.201 7.81534 11.104 7.33558 10.9102 6.94283C10.7163 6.55007 10.4354 6.24929 10.0675 6.04048C9.69957 5.83168 9.30682 5.68501 8.8892 5.6005C8.47159 5.51598 7.98935 5.47372 7.44247 5.47372ZM7.11435 10.2166H4.48935V7.4723H6.92045C8.10369 7.4723 8.69531 7.91974 8.69531 8.81463C8.69531 9.74929 8.16832 10.2166 7.11435 10.2166ZM7.24858 15.2131H4.48935V11.9766H7.30824C8.54119 11.9766 9.15767 12.5384 9.15767 13.6619C9.15767 14.696 8.52131 15.2131 7.24858 15.2131ZM16.9432 15.6903C16.267 15.6903 15.75 15.5014 15.392 15.1236C15.0341 14.7457 14.8551 14.2138 14.8551 13.5277H20.9851C20.995 13.4283 21 13.2791 21 13.0803C21 11.7678 20.6296 10.6715 19.8888 9.79155C19.1481 8.91158 18.1364 8.47159 16.8537 8.47159C15.581 8.47159 14.5369 8.89915 13.7216 9.75426C12.9062 10.6094 12.4986 11.6832 12.4986 12.9759C12.4986 14.3182 12.8913 15.397 13.6768 16.2124C14.4624 17.0277 15.5213 17.4354 16.8537 17.4354C18.892 17.4354 20.2195 16.4858 20.8359 14.5866H18.7777C18.6683 14.9247 18.4322 15.1932 18.0692 15.392C17.7063 15.5909 17.331 15.6903 16.9432 15.6903ZM16.794 10.2315C17.9176 10.2315 18.5341 10.8381 18.6435 12.0511H14.8551C14.8949 11.4943 15.0888 11.0518 15.4368 10.7237C15.7848 10.3956 16.2372 10.2315 16.794 10.2315ZM14.3778 6.2642H19.1357V7.41264H14.3778V6.2642Z" fill="white"/>
</svg>
