<svg width="23" height="23" viewBox="0 0 23 23" fill="none" xmlns="http://www.w3.org/2000/svg">
<path d="M4.48933 0C2.02055 0 0 2.0205 0 4.48933V18.4205C0 20.8893 2.0205 22.9091 4.48933 22.9091H18.4205C20.8893 22.9091 22.9091 20.8893 22.9091 18.4205V4.48933C22.9091 2.02055 20.8893 0 18.4205 0H4.48933ZM5.61846 3.78046C6.80218 3.78046 7.53131 4.55756 7.55382 5.57904C7.55382 6.57797 6.80214 7.3769 5.59556 7.3769H5.57335C4.41216 7.3769 3.66163 6.57801 3.66163 5.57904C3.66163 4.55758 4.43489 3.78046 5.61846 3.78046ZM15.8193 8.55474C18.0958 8.55474 19.8024 10.0427 19.8024 13.2402V19.2095H16.3427V13.6404C16.3427 12.241 15.842 11.2862 14.5899 11.2862C13.6341 11.2862 13.0644 11.9298 12.8143 12.5514C12.7229 12.7738 12.7004 13.0844 12.7004 13.3956V19.2095H9.24071C9.24071 19.2095 9.28611 9.77569 9.24071 8.79887H12.7011V10.2731C13.1609 9.56378 13.9833 8.55474 15.8193 8.55474ZM3.8657 8.79963H7.3254V19.2095H3.8657V8.79963Z" fill="white"/>
</svg>
