<svg width="22" height="22" viewBox="0 0 22 22" fill="none" xmlns="http://www.w3.org/2000/svg">
<path d="M15.05 6.64944V11.8994C15.05 12.7349 15.3819 13.5361 15.9726 14.1268C16.5633 14.7176 17.3645 15.0494 18.2 15.0494C19.0354 15.0494 19.8366 14.7176 20.4274 14.1268C21.0181 13.5361 21.35 12.7349 21.35 11.8994V10.8494C21.3498 8.47962 20.548 6.17954 19.0749 4.3232C17.6018 2.46686 15.5441 1.16343 13.2362 0.624858C10.9284 0.0862844 8.50631 0.34424 6.3637 1.35678C4.22108 2.36932 2.484 4.0769 1.43491 6.20185C0.385809 8.32681 0.0864 10.7442 0.585361 13.0609C1.08432 15.3776 2.35231 17.4573 4.18314 18.962C6.01398 20.4667 8.29999 21.3078 10.6695 21.3485C13.0389 21.3893 15.3525 20.6273 17.234 19.1864M15.05 10.8494C15.05 13.169 13.1696 15.0494 10.85 15.0494C8.53039 15.0494 6.64998 13.169 6.64998 10.8494C6.64998 8.52985 8.53039 6.64944 10.85 6.64944C13.1696 6.64944 15.05 8.52985 15.05 10.8494Z" stroke="white" stroke-width="0.7" stroke-linecap="round" stroke-linejoin="round"/>
</svg>
