<svg width="23" height="23" viewBox="0 0 23 23" fill="none" xmlns="http://www.w3.org/2000/svg">
<path d="M0 11.4545C0 16.3447 3.06505 20.5199 7.37864 22.1626C7.27364 21.2682 7.16195 19.7935 7.4025 18.7587C7.60964 17.8691 8.73982 13.0906 8.73982 13.0906C8.73982 13.0906 8.39905 12.4081 8.39905 11.3973C8.39905 9.81273 9.31732 8.62909 10.4618 8.62909C11.4355 8.62909 11.9051 9.35932 11.9051 10.2346C11.9051 11.213 11.2818 12.6754 10.9601 14.0318C10.6919 15.1668 11.53 16.0927 12.6487 16.0927C14.6752 16.0927 16.234 13.9555 16.234 10.8704C16.234 8.13941 14.2714 6.23127 11.4698 6.23127C8.22627 6.23127 6.32195 8.66441 6.32195 11.1796C6.32195 12.16 6.699 13.21 7.17055 13.7817C7.21075 13.8249 7.23915 13.8777 7.25303 13.9351C7.26691 13.9924 7.26578 14.0524 7.24977 14.1091C7.16291 14.47 6.97009 15.2441 6.93286 15.4025C6.88227 15.6106 6.76773 15.6555 6.55105 15.5543C5.12686 14.8919 4.23723 12.81 4.23723 11.1376C4.23723 7.53995 6.84982 4.23723 11.7705 4.23723C15.7261 4.23723 18.8007 7.056 18.8007 10.8226C18.8007 14.7525 16.3237 17.9159 12.8835 17.9159C11.7275 17.9159 10.6422 17.3145 10.27 16.6053C10.27 16.6053 9.69818 18.7835 9.55977 19.3162C9.29059 20.3509 8.54414 21.6605 8.08118 22.4041C9.14836 22.7325 10.2805 22.9091 11.4545 22.9091C17.7803 22.9091 22.9091 17.7803 22.9091 11.4545C22.9091 5.12877 17.7803 0 11.4545 0C5.12877 0 0 5.12877 0 11.4545Z" fill="white"/>
</svg>
