<svg width="23" height="23" viewBox="0 0 23 23" fill="none" xmlns="http://www.w3.org/2000/svg">
<path d="M22.3493 16.8213V20.1332C22.3505 20.4407 22.2874 20.745 22.164 21.0267C22.0406 21.3084 21.8596 21.5613 21.6326 21.7691C21.4056 21.977 21.1376 22.1352 20.8458 22.2337C20.5539 22.3322 20.2447 22.3688 19.9379 22.3411C16.5341 21.972 13.2645 20.8112 10.3918 18.952C7.71911 17.257 5.45316 14.9956 3.75485 12.3282C1.88542 9.44818 0.722041 6.16918 0.358954 2.75684C0.331312 2.45156 0.367665 2.14388 0.465698 1.85339C0.563732 1.56289 0.721298 1.29596 0.928364 1.06957C1.13543 0.843182 1.38746 0.662305 1.66841 0.538455C1.94936 0.414604 2.25307 0.350493 2.5602 0.350205H5.87866C6.41549 0.344932 6.93592 0.534653 7.34295 0.884007C7.74998 1.23336 8.01584 1.71851 8.09097 2.24902C8.23103 3.3089 8.49079 4.34956 8.86528 5.35115C9.0141 5.74629 9.04631 6.17572 8.95809 6.58856C8.86987 7.00141 8.66491 7.38036 8.36751 7.68052L6.96269 9.08255C8.53736 11.8464 10.8303 14.1348 13.5996 15.7063L15.0044 14.3043C15.3052 14.0075 15.6849 13.8029 16.0986 13.7149C16.5122 13.6268 16.9425 13.659 17.3384 13.8075C18.342 14.1813 19.3847 14.4405 20.4467 14.5803C20.984 14.6559 21.4748 14.926 21.8256 15.3392C22.1764 15.7524 22.3628 16.2799 22.3493 16.8213Z" stroke="white" stroke-width="0.7" stroke-linecap="round" stroke-linejoin="round"/>
</svg>
