<svg width="23" height="14" viewBox="0 0 23 14" fill="none" xmlns="http://www.w3.org/2000/svg">
<path d="M13.35 10.1001H7.93331M18.7666 10.1001H22.0166V6.68763C22.0174 6.42982 21.9262 6.18019 21.7594 5.98361C21.5926 5.78703 21.3611 5.65638 21.1066 5.61513L15.5166 4.68347L12.5916 0.783482C12.4907 0.648937 12.3599 0.539733 12.2095 0.46452C12.059 0.389307 11.8932 0.35015 11.725 0.35015H3.85997C3.45618 0.34734 3.05964 0.457425 2.71509 0.667986C2.37053 0.878546 2.09168 1.1812 1.90998 1.54181L1.04331 3.30764C0.588466 4.2118 0.351051 5.20968 0.349976 6.22179V10.1001H2.51664M7.93331 10.6418C7.93331 12.1375 6.72075 13.3501 5.22497 13.3501C3.7292 13.3501 2.51664 12.1375 2.51664 10.6418C2.51664 9.14601 3.7292 7.93345 5.22497 7.93345C6.72075 7.93345 7.93331 9.14601 7.93331 10.6418ZM18.7666 10.6418C18.7666 12.1375 17.5541 13.3501 16.0583 13.3501C14.5625 13.3501 13.35 12.1375 13.35 10.6418C13.35 9.14601 14.5625 7.93345 16.0583 7.93345C17.5541 7.93345 18.7666 9.14601 18.7666 10.6418Z" stroke="white" stroke-width="0.7" stroke-linecap="round" stroke-linejoin="round"/>
</svg>
